<svg xmlns="http://www.w3.org/2000/svg">
  <symbol id="arrow-down" viewBox="0 0 24 24">
    <path d="M12 5v14" />
    <path d="m19 12-7 7-7-7" />
  </symbol>
  <symbol id="arrow-up-right" viewBox="0 0 24 24">
    <path d="M7 17 17 7" />
    <path d="M7 7h10v10" />
  </symbol>
  <symbol id="check" viewBox="0 0 24 24">
    <path d="m20 6-11 11-5-5" />
  </symbol>
  <symbol id="check-square" viewBox="0 0 24 24">
    <path d="m9 11 3 3L22 4" />
    <path d="M21 12v7a2 2 0 0 1-2 2H5a2 2 0 0 1-2-2V5a2 2 0 0 1 2-2h11" />
  </symbol>
  <symbol id="circle-check" viewBox="0 0 24 24">
    <circle cx="12" cy="12" r="10" />
    <path d="m9 12 2 2 4-4" />
  </symbol>
  <symbol id="circle-dot" viewBox="0 0 24 24">
    <circle cx="12" cy="12" r="10" />
    <circle cx="12" cy="12" r="1" />
  </symbol>
  <symbol id="chevron-down" viewBox="0 0 24 24">
    <path d="m6 9 6 6 6-6" />
  </symbol>
  <symbol id="file-pen" viewBox="0 0 24 24">
    <path d="M14.5 2H6a2 2 0 0 0-2 2v16a2 2 0 0 0 2 2h12a2 2 0 0 0 2-2V7.5Z" />
    <path d="M14 2v6h6M9 15l4.5-4.5 2 2L11 17H9Z" />
  </symbol>
  <symbol id="file-plus" viewBox="0 0 24 24">
    <path d="M14.5 2H6a2 2 0 0 0-2 2v16a2 2 0 0 0 2 2h12a2 2 0 0 0 2-2V7.5Z" />
    <path d="M14 2v6h6M12 12v6M9 15h6" />
  </symbol>
  <symbol id="file-text" viewBox="0 0 24 24">
    <path d="M14.5 2H6a2 2 0 0 0-2 2v16a2 2 0 0 0 2 2h12a2 2 0 0 0 2-2V7.5Z" />
    <path d="M14 2v6h6M8 13h8M8 17h6" />
  </symbol>
  <symbol id="list-plus" viewBox="0 0 24 24">
    <path d="M11 12H3M16 6H3M11 18H3M18 9v6M15 12h6" />
  </symbol>
  <symbol id="moon" viewBox="0 0 24 24">
    <path d="M12 3a6 6 0 0 0 9 9 9 9 0 1 1-9-9Z" />
  </symbol>
  <symbol id="play" viewBox="0 0 24 24">
    <path d="m6 3 14 9-14 9Z" />
  </symbol>
  <symbol id="refresh-cw" viewBox="0 0 24 24">
    <path d="M21 12a9 9 0 0 0-15.65-6.13L3 8" />
    <path d="M3 3v5h5" />
    <path d="M3 12a9 9 0 0 0 15.65 6.13L21 16" />
    <path d="M16 16h5v5" />
  </symbol>
  <symbol id="square" viewBox="0 0 24 24">
    <rect width="18" height="18" x="3" y="3" rx="2" />
  </symbol>
  <symbol id="sun" viewBox="0 0 24 24">
    <circle cx="12" cy="12" r="4" />
    <path d="M12 2v2M12 20v2M4.93 4.93l1.42 1.42M17.66 17.66l1.41 1.41M2 12h2M20 12h2M6.34 17.66l-1.41 1.41M19.07 4.93l-1.41 1.41" />
  </symbol>
  <symbol id="terminal" viewBox="0 0 24 24">
    <path d="m4 17 6-6-6-6M12 19h8" />
  </symbol>
  <symbol id="triangle-alert" viewBox="0 0 24 24">
    <path d="m21.7 18-8-14a2 2 0 0 0-3.4 0l-8 14A2 2 0 0 0 4 21h16a2 2 0 0 0 1.7-3ZM12 9v4M12 17h.01" />
  </symbol>
  <symbol id="wrench" viewBox="0 0 24 24">
    <path d="M14.7 6.3a4 4 0 0 0-5-5L7.4 3.6l3 3L8 9a4 4 0 0 0-5 5L14 3l7 7-11 11a4 4 0 0 0 5-5l2.4-2.4 3 3 2.3-2.3a4 4 0 0 0-5-5" />
  </symbol>
  <symbol id="x" viewBox="0 0 24 24">
    <path d="M18 6 6 18M6 6l12 12" />
  </symbol>
</svg>
